<svg xmlns="http://www.w3.org/2000/svg" width="33.565" height="33.603" viewBox="0 0 33.565 33.603">
  <path id="dribbble" d="M22.894,32.436c.028-.008.055-.02.083-.029C40.076,25.613,35.346,0,16.8,0a16.792,16.792,0,1,0,6.1,32.436Zm-15.5-4.355c1.193-2,5.052-7.66,11.64-9.612a35.381,35.381,0,0,1,2.439,12.256A14.606,14.606,0,0,1,7.393,28.081Zm16.144,1.768A37.692,37.692,0,0,0,21.143,18a19.026,19.026,0,0,1,10.114,1.382A14.732,14.732,0,0,1,23.537,29.849Zm7.94-12.643a20.37,20.37,0,0,0-11.142-1.168c-.5-1.12-1.019-2.2-1.572-3.188A28,28,0,0,0,27.914,7.21,14.51,14.51,0,0,1,31.477,17.206ZM26.423,5.714a26.947,26.947,0,0,1-8.763,5.278,39.284,39.284,0,0,0-6.437-7.786A14.612,14.612,0,0,1,26.423,5.714ZM9.216,4.232a36.954,36.954,0,0,1,6.367,7.5A46.22,46.22,0,0,1,2.411,13.795a14.727,14.727,0,0,1,6.8-9.563ZM2.145,15.9A48.339,48.339,0,0,0,16.716,13.6c.526.923,1.026,1.928,1.506,2.972C11.594,18.679,7.452,24.129,5.866,26.59A14.508,14.508,0,0,1,2.145,15.9Z" fill="#fff"/>
</svg>
