<svg xmlns="http://www.w3.org/2000/svg" width="34.636" height="34.636" viewBox="0 0 34.636 34.636">
  <path id="github" d="M17.318,0A17.318,17.318,0,1,0,34.636,17.386,17.436,17.436,0,0,0,17.318,0Zm3.044,32.3a15.373,15.373,0,0,1-6.088,0V27.554a2.885,2.885,0,0,1,.71-2.091,22.194,22.194,0,0,0,1.258-1.847l-1.563-.244c-4.019-.588-5.6-2.679-6.231-4.3a6.9,6.9,0,0,1,1.076-6.616,1.224,1.224,0,0,0,.244-1.177,5.978,5.978,0,0,1-.061-2.983,9.258,9.258,0,0,1,3.105,1.482,1.458,1.458,0,0,0,.852.2,14.749,14.749,0,0,1,3.673-.528,12.435,12.435,0,0,1,3.389.487,1.464,1.464,0,0,0,1.1-.162,9.015,9.015,0,0,1,3.1-1.482,5.981,5.981,0,0,1-.061,2.983,1.222,1.222,0,0,0,.244,1.177,6.9,6.9,0,0,1,1.076,6.616c-.629,1.624-2.212,3.714-6.231,4.3l-1.563.244a21.7,21.7,0,0,0,1.258,1.847,2.886,2.886,0,0,1,.71,2.091Zm2.029-.588v-4.16a4.867,4.867,0,0,0-.568-2.5,8.68,8.68,0,0,0,6.251-5.277,8.923,8.923,0,0,0-1.157-8.321c.3-1.36.3-3.531-.426-4.546a1.584,1.584,0,0,0-1.34-.69h-.02a8.892,8.892,0,0,0-4.14,1.684A14.313,14.313,0,0,0,17.3,7.421a14.019,14.019,0,0,0-3.632.487A8.966,8.966,0,0,0,9.424,6.224a1.557,1.557,0,0,0-1.279.69c-.73,1.015-.73,3.186-.426,4.546A8.931,8.931,0,0,0,6.562,19.78a8.68,8.68,0,0,0,6.251,5.277,4.413,4.413,0,0,0-.53,1.778,2.705,2.705,0,0,1-1.666.137,2.246,2.246,0,0,1-1.3-1.114,4.172,4.172,0,0,0-3.742-2.316l.178,2.022c.724-.066,1.444.7,1.818,1.331a4.178,4.178,0,0,0,4.674,2.083v2.736a15.289,15.289,0,1,1,10.147,0Zm0,0" fill="#fff"/>
</svg>
