<svg xmlns="http://www.w3.org/2000/svg" width="33.603" height="33.603" viewBox="0 0 33.603 33.603">
  <path id="instagram" d="M16.8,0c-4.564,0-5.134.021-6.926.1A12.389,12.389,0,0,0,5.8.882,8.228,8.228,0,0,0,2.82,2.82,8.2,8.2,0,0,0,.882,5.8,12.353,12.353,0,0,0,.1,9.875C.017,11.667,0,12.237,0,16.8s.021,5.134.1,6.926a12.4,12.4,0,0,0,.781,4.079A8.24,8.24,0,0,0,2.82,30.783,8.216,8.216,0,0,0,5.8,32.721a12.4,12.4,0,0,0,4.079.781c1.792.084,2.362.1,6.926.1s5.134-.021,6.926-.1a12.433,12.433,0,0,0,4.079-.781,8.587,8.587,0,0,0,4.914-4.914,12.4,12.4,0,0,0,.781-4.079c.084-1.792.1-2.362.1-6.926s-.021-5.134-.1-6.926A12.425,12.425,0,0,0,32.721,5.8,8.246,8.246,0,0,0,30.783,2.82,8.186,8.186,0,0,0,27.807.882,12.361,12.361,0,0,0,23.728.1C21.936.017,21.366,0,16.8,0Zm0,3.024c4.485,0,5.019.022,6.791.1A9.257,9.257,0,0,1,26.71,3.7,5.529,5.529,0,0,1,29.9,6.893a9.276,9.276,0,0,1,.578,3.118c.08,1.773.1,2.3.1,6.791s-.021,5.019-.1,6.791a9.455,9.455,0,0,1-.589,3.118,5.335,5.335,0,0,1-1.259,1.935A5.242,5.242,0,0,1,26.692,29.9a9.345,9.345,0,0,1-3.129.578c-1.784.08-2.309.1-6.8.1s-5.021-.021-6.8-.1a9.527,9.527,0,0,1-3.131-.589,5.2,5.2,0,0,1-1.931-1.259,5.1,5.1,0,0,1-1.26-1.932,9.535,9.535,0,0,1-.588-3.129c-.063-1.764-.085-2.309-.085-6.782s.022-5.021.085-6.806a9.524,9.524,0,0,1,.588-3.128,4.98,4.98,0,0,1,1.26-1.934A4.969,4.969,0,0,1,6.826,3.656a9.3,9.3,0,0,1,3.11-.589c1.785-.063,2.31-.084,6.8-.084l.063.042Zm0,5.15A8.628,8.628,0,1,0,25.429,16.8,8.627,8.627,0,0,0,16.8,8.174Zm0,14.228a5.6,5.6,0,1,1,5.6-5.6A5.6,5.6,0,0,1,16.8,22.4ZM27.787,7.834a2.016,2.016,0,1,1-2.016-2.015A2.018,2.018,0,0,1,27.787,7.834Z" fill="#fff"/>
</svg>
